<svg width="597" height="201" viewBox="0 0 597 201" fill="none" xmlns="http://www.w3.org/2000/svg">
<path d="M531.884 27.2104C538.566 31.0339 545.989 31.9862 552.489 35.4449C571.977 45.8138 585.391 61.3481 591.56 82.5075C598.693 106.974 597.933 131.365 587.176 154.715C574.445 182.349 552.317 197.7 522.128 200.018C492.399 202.3 467.827 191.868 450.632 166.671C441.484 153.265 437.326 138.025 436.059 122.054C435.659 117.011 434.736 114.399 429.5 115C428.725 115.089 428.567 114.79 428 113.5C428.641 111.484 429.5 112.5 431.13 111.856C434.612 111.968 435.591 110.352 435.799 107.029C436.974 88.2151 441.564 70.4883 453.91 55.6427C464.513 42.8938 477.649 33.8214 493.921 29.805C497.194 28.997 499.365 27.5287 501.303 24.6004C506.328 17.0062 510.215 8.75146 515.394 0.388428C522.984 8.39277 525.791 18.6274 531.884 27.2104ZM537.907 82.548C529.313 72.545 523.714 60.8181 518.632 48.6879C517.77 59.9126 518.82 71.0645 517.923 82.1088C516.883 82.1528 514.943 82.5039 513.902 82.548C513.622 71.5 514.35 60.4832 513.622 49.5602C511.959 50.0513 512.278 51.2741 511.958 52.1164C508.578 61.0318 504.351 69.5224 498.614 77.1455C488.362 90.7677 475.024 100.486 459.532 107.395C457.57 108.27 455.298 108.886 453.798 111.74C463.009 111.74 471.486 111.717 479.962 111.754C482.425 111.765 484.572 111.377 485 109C485.678 105.235 487.193 102.215 489.5 99C491.62 96.045 503 86.5 505 87.5C490.444 106.395 493.732 115 495 118C501.5 133.377 509.49 128.705 513.902 131C522.331 131 522.331 131 530 129.745C540.5 125 538.521 117.673 540.256 111.74C541.359 107.971 539.256 103.619 535 96.1688C534.246 94.3801 525.169 85.6883 530 87.5C542 92 546.997 104.938 548.249 110.276C548.945 113.244 550.412 111.917 553.453 111.85C560.616 111.694 567.785 111.821 574.951 111.749C575.921 111.739 577.366 112.358 577.812 110.276C563.141 103.497 548.953 95.8665 537.907 82.548ZM505.89 56.4101C511.52 43.4818 516.382 30.4289 512.254 15.7374C508.937 20.5273 506 25.4734 503.416 30.5973C502.12 33.1664 500.44 34.6007 497.696 35.6105C489.322 38.6922 482.011 43.2176 476.215 50.4187C465.396 63.8617 461.735 79.7373 459.414 96.1688C459.135 98.1411 458.546 100.533 460.952 102.451C481.743 93.2213 496.488 77.9758 505.89 56.4101ZM521.927 18.7719C521.12 18.0319 521.096 16.515 519.534 16.4064C518.117 18.5967 518.193 21.0677 518.014 23.5417C517.316 33.1751 520.529 41.8647 524.095 50.5447C530.972 67.2849 540.135 82.2978 555.014 93.2442C560.203 97.0622 565.558 100.479 571.453 102.913C572.979 100.666 572.751 98.7858 572.488 97.0245C570.634 84.6419 567.753 72.5641 562.268 61.1878C556.733 49.7081 548.259 41.4918 536.328 36.9579C532.462 35.4887 529.483 33.6261 528.062 29.1984C526.923 25.6519 524.311 22.5784 521.927 18.7719ZM479.946 136.556C473.922 132.33 468.023 127.867 460.338 125.632C460.248 127.48 460.069 128.623 460.157 129.745C461.091 141.619 463.859 153.059 468.702 163.941C473.434 174.572 480.343 183.408 490.948 188.73C497.891 192.214 505.139 194.765 514.074 193.196C507.297 171.171 498.561 151.354 479.946 136.556ZM522.331 181.716C521.774 183.283 521.116 184.822 520.678 186.421C518.954 192.719 520.622 194.366 526.988 193.007C542.526 189.689 553.434 180.547 560.96 166.773C566.635 156.388 569.584 145.2 571.511 133.681C571.921 131.23 572.678 128.508 570.892 125.546C545.469 136.2 531.263 156.144 522.331 181.716ZM512.027 174.829C512.365 175.336 512.44 176.124 513.876 176.008C513.876 167.29 513.826 158.523 513.902 149.757C513.93 146.558 514.802 141 508.5 141C496.865 138.335 492.5 133.681 487.785 122.054C485.46 114.692 479.695 114.915 472.751 115.58C466.085 116.219 459.282 114.365 452.498 116.402C453.703 118.775 455.928 118.813 457.686 119.536C469.649 124.457 480.479 131.126 489.944 139.989C500.16 149.555 506.078 161.828 512.027 174.829ZM540.256 135.726C535.465 140.847 527.754 142.355 520.678 143.5C518.812 143.802 518.494 146.172 518.385 148.852C518.009 158.064 517.798 167.28 519.082 176.742C530.166 147.942 549.394 127.6 578.871 117.123C570.273 116.162 562.16 114.91 553.858 115.764C550.394 116.121 548.868 114.723 548.249 118C547.204 123.531 544.398 130.972 540.256 135.726Z" fill="black"/>
<path d="M310.007 197.257C305.675 197.242 301.842 197.26 298.009 197.202C296.514 197.179 294.807 197.199 294.616 195.126C294.419 192.979 296.067 192.949 297.596 192.672C309.357 190.54 310.889 188.883 310.936 177.009C311.039 151.012 311.036 125.014 310.966 99.0167C310.951 93.5051 311.166 88.0233 311.824 82.5644C312.14 79.9426 312.5 77.5 314.723 75.5436C318.316 75.2027 322.126 75.7978 325.15 79.0707C331.25 85.6723 332.936 93.2278 332.37 101.965C331.809 110.644 332.225 110.747 341.093 110.632C348.917 110.53 356.77 110.387 364.48 108.947C380.264 105.998 389.827 95.7434 391.493 79.8203C391.993 75.0439 392.067 70.1213 391.522 65.3588C390.459 56.0666 386.5 44.5 378.476 42.8098C330.5 37.5 317 30 319.5 28.5C346 28.5 373.499 29.6438 382.5 33C411.499 40.1438 424.692 70.7855 408.973 94.8633C405.552 100.104 401.116 104.313 395.381 107.064C393.481 107.976 391.732 109.205 390.007 110.831C398.615 112.63 428.5 110 436.5 113.5C424.5 117.5 388.428 115.871 374.41 115.531C375.072 117.94 376.526 118.111 377.659 118.641C390.112 124.475 399.229 133.426 404.2 146.45C407.347 154.696 410.918 162.762 414.882 170.669C420.791 182.458 429.242 190.586 443.049 191.675C444.366 191.779 445.932 191.808 445.908 193.689C445.882 195.811 444.103 196.378 442.513 196.795C426.729 200.932 405.009 197.623 394.514 178.406C390.828 171.657 388.233 164.455 385.575 157.27C382.804 149.781 380.319 142.194 376.907 134.931C371.252 122.895 361.247 117.632 348.719 116.384C332.405 114.76 332.366 114.902 332.331 131.171C332.298 146.17 332.277 161.169 332.345 176.168C332.398 187.994 334.616 190.544 346.352 192.602C347.859 192.866 349.604 192.805 349.619 194.847C349.637 197.242 347.657 197.218 346.002 197.223C334.17 197.263 322.338 197.253 310.007 197.257Z" fill="black"/>
<path d="M51.7563 147.179C39.3423 116.235 27.0148 85.6699 14.765 55.0739C12.1528 48.5497 8.50511 42.5889 5.20651 36.4325C4.26994 34.6845 2.29374 34.3463 0.876587 33.1231C1.18714 32.5412 1.31116 31.883 1.63702 31.7602C11.7601 27.9433 25.4501 31.3609 32.2408 39.3065C33.0012 40.1962 33.9045 40.9541 34.0933 42.1873C36.0388 54.8921 42.4476 65.9766 47.014 77.7275C56.0575 101 65.1667 124.246 74.2399 147.507C76.2835 152.746 78.2689 158.01 81.3197 163.429C85.0308 159.322 85.8837 154.492 87.5419 150.163C99.2712 119.55 110.792 88.8567 122.429 58.2075C123.855 54.4513 124.861 50.6072 125.679 46.6904C126.019 45.0592 125.405 42.3639 128.194 42.7328C130.509 43.039 132.511 44.5479 133.016 47.1877C133.343 48.8987 132.683 50.4605 132.079 52.0249C116.379 92.7039 100.576 133.345 85.8356 174.387C83.3604 181.278 80.9783 188.203 78.5116 195.098C77.8514 196.943 77.4175 199.065 74.7698 199.132C72.1741 199.198 71.5249 197.282 70.7746 195.38C64.4839 179.431 58.1744 163.49 51.7563 147.179Z" fill="black"/>
<path d="M267.497 180.496C273.914 172.836 276.506 163.91 278.617 154.774C279.046 152.918 278.865 150.221 281.736 150.583C284.476 150.928 283.447 153.474 283.322 155.082C282.328 167.844 281.194 180.595 280.125 193.352C279.888 196.187 278.487 197.361 275.575 197.356C237.929 197.287 200.282 197.296 162.635 197.256C161.046 197.254 158.973 197.601 158.697 195.249C158.357 192.352 160.75 192.872 162.452 192.576C172.38 190.847 175.013 187.84 175.012 177.455C175.009 146.306 174.887 115.158 174.825 84.0095C174.821 81.6795 174.53 51.7995 174.825 49.5C175.576 43.6588 174.328 42.7495 179 43C196.111 43 195.604 38 196.111 78.2604C196.218 86.7548 196.339 95.2526 196.204 103.745C196.145 107.467 197.633 108.758 201.233 108.691C208.226 108.561 215.224 108.764 222.22 108.721C235.083 108.642 242.497 102.173 244.686 89.2228C244.797 88.567 244.765 87.8821 244.92 87.2397C245.328 85.5507 245.087 83.0231 247.624 83.2181C249.96 83.3977 249.293 85.7534 249.297 87.2744C249.343 103.599 249.345 119.923 249.273 136.248C249.266 137.87 250.047 140.487 247.204 140.43C244.703 140.379 245.019 137.904 244.806 136.168C243.059 121.931 236.659 116.039 222.447 114.856C215.262 114.258 208.148 114.923 201.001 114.961C197.652 114.979 196.269 116.442 196.281 119.837C196.36 141.991 196.338 164.146 196.331 186.301C196.331 188.712 196.78 190.717 199.789 190.651C216.087 190.294 232.448 191.998 248.674 189.63C255.642 188.612 262.218 186.134 267.497 180.496Z" fill="black"/>
<path d="M195 50C147 37.5 248.5 45 261.5 38.5C279.5 48 278 61.0499 278 66C276.784 72.8246 273 42 195 50Z" fill="black"/>
</svg>
